<svg width="104" height="124" viewBox="0 0 104 124" fill="none" xmlns="http://www.w3.org/2000/svg">
<path d="M77.9954 74.5962C77.9954 74.5962 77.9866 75.1952 78.0854 75.4558C78.1333 75.5803 78.1479 75.718 78.1667 75.8512C78.2205 76.2305 78.2742 76.6098 78.3149 76.9905C78.373 77.5221 78.434 78.0493 78.6344 78.553C78.723 78.7756 78.7361 79.0275 78.8276 79.2471C79.0484 79.7787 79.2778 80.3074 79.5407 80.8184C79.6192 80.9722 79.8152 81.063 79.9648 81.1889C79.5291 81.5711 79.1007 81.9621 78.6548 82.3297C78.4747 82.4776 78.2437 82.5596 78.0534 82.6958C77.5756 83.0414 77.1079 83.4016 76.6359 83.756C76.219 84.0694 75.7891 84.3652 75.3926 84.702C74.9787 85.0535 74.6301 85.4884 74.1958 85.8091C73.7339 86.1503 73.3984 86.6087 72.9743 86.9791C72.662 87.253 72.3425 87.5195 72.0418 87.8051C71.885 87.9544 71.7673 88.1448 71.6148 88.3015C71.3273 88.5988 71.028 88.8873 70.7318 89.1757C70.4601 89.4408 70.1973 89.7103 69.9591 90.0105C69.5756 90.4908 69.1007 90.8993 68.7419 91.3958C68.5124 91.715 68.1551 91.9024 67.9808 92.2803C67.8879 92.4809 67.6119 92.5892 67.4362 92.7562C67.1196 93.0579 66.848 93.4181 66.4965 93.6656C66.2394 93.8472 66.1784 94.1591 65.9199 94.3202C65.6671 94.4769 65.4304 94.6614 65.1878 94.8371C64.6228 95.2471 64.0622 95.6659 63.4899 96.0657C63.3607 96.155 63.182 96.1697 63.0397 96.2429C62.5052 96.5182 61.9446 96.7467 61.3636 96.8726C60.8581 96.9824 60.3265 96.9619 59.8051 97C59.7935 96.9722 59.7819 96.9444 59.7688 96.9165C59.8138 96.8741 59.8516 96.8096 59.9053 96.7906C60.6475 96.5343 61.4028 96.3147 62.129 96.0203C62.4878 95.8753 62.7957 95.5986 63.1239 95.3789C63.5016 95.127 63.8966 94.8986 64.2467 94.613C64.6185 94.3099 65.0949 94.1064 65.259 93.5762C65.3113 93.4108 65.5103 93.2965 65.6207 93.1428C66.0506 92.5424 66.4761 91.9376 66.893 91.3284C67.0092 91.1585 67.0702 90.9462 67.198 90.7866C67.2939 90.665 67.3941 90.5625 67.458 90.4117C67.5306 90.2418 67.657 90.0954 67.7673 89.9445C67.8429 89.8435 67.9344 89.7542 68.0186 89.659C68.0477 89.6253 68.0956 89.5946 68.1029 89.5565C68.1697 89.2021 68.4877 89.0205 68.649 88.732C68.7535 88.5431 68.8378 88.3425 68.9409 88.1536C68.9845 88.0745 69.0658 88.0174 69.1094 87.9369C69.2575 87.666 69.3984 87.3921 69.5364 87.1168C69.7499 86.6936 69.9721 86.2748 70.1682 85.8428C70.3091 85.5323 70.4166 85.2072 70.5299 84.8865C70.6533 84.5395 70.8683 84.229 70.8988 83.8439C70.9075 83.7355 71.015 83.633 71.0818 83.532C71.2081 83.3387 71.3389 83.1498 71.2953 82.8964C71.2924 82.8759 71.3548 82.8452 71.3868 82.8188C71.4275 82.7851 71.503 82.75 71.5015 82.7192C71.4667 82.2828 71.7731 81.9211 71.7644 81.4906C71.7615 81.3837 71.808 81.2739 71.8371 81.167C72.0113 80.5124 72.0331 79.8432 72.0215 79.171C72.0172 78.9396 72.1595 78.7039 72.007 78.4769C72.0012 78.4681 71.9968 78.4505 72.0026 78.4447C72.2786 78.0683 71.9445 77.6715 72.0433 77.2907C72.0985 77.074 72.0302 76.8719 71.9939 76.6654C71.9866 76.623 71.962 76.5658 71.9808 76.538C72.1246 76.3184 72.0462 76.1075 71.9721 75.8937C71.8951 75.674 71.9068 75.4397 71.8719 75.2171C71.654 73.7981 71.548 72.3689 71.4638 70.9382C71.41 70.0376 71.3897 69.1297 71.2604 68.2393C71.0963 67.119 71.1355 65.9885 71.0005 64.8668C70.9162 64.1624 70.9206 63.4463 70.8872 62.7346C70.8392 61.7081 70.784 60.6816 70.7463 59.655C70.7129 58.7515 70.694 57.8465 70.6751 56.9415C70.6519 55.7231 70.6344 54.5062 70.6156 53.2878C70.6141 53.1868 70.6156 53.0858 70.6156 52.9144C70.9336 53.0667 71.2256 53.1707 71.4783 53.3332C71.9634 53.6466 72.5284 53.6964 73.0411 53.9117C73.0513 53.8868 73.0629 53.8633 73.0731 53.8385C72.9162 53.7579 72.7608 53.6759 72.6025 53.5983C72.4325 53.5148 72.2539 53.4445 72.0883 53.3523C71.641 53.1019 71.182 52.8676 70.7593 52.5805C70.2466 52.232 69.7717 51.8264 69.2692 51.4617C68.7448 51.081 68.206 50.7208 67.6787 50.3444C67.5146 50.2273 67.3679 50.0881 67.2125 49.9593C66.9496 49.7425 66.8087 49.7323 66.5589 49.9256C66.0825 50.2946 65.6105 50.6695 65.1355 51.0429C64.6969 51.3871 64.2539 51.7253 63.8255 52.0812C63.686 52.1983 63.5887 52.3653 63.4594 52.5264C63.747 52.7548 63.6468 53.0799 63.6628 53.3508C63.7064 54.1064 63.6846 54.865 63.686 55.6221C63.6889 56.798 63.6802 57.9754 63.6976 59.1513C63.7093 59.964 63.7688 60.7768 63.7906 61.5895C63.8313 63.1374 63.856 64.6867 63.8995 66.2346C63.9155 66.8101 63.9736 67.3841 63.9983 67.9581C64.0607 69.3464 64.1159 70.7346 64.1726 72.1214C64.19 72.549 64.19 72.9795 64.2176 73.4057C64.2467 73.864 64.3106 74.3195 64.3367 74.7778C64.3454 74.9169 64.2525 75.0619 64.2568 75.201C64.2655 75.5232 64.3207 75.8439 64.3294 76.1661C64.3396 76.5468 64.3164 76.929 64.3178 77.3112C64.3178 77.9277 64.3628 78.5472 64.3236 79.1608C64.2801 79.8402 64.3541 80.5168 64.2568 81.2036C64.1857 81.7029 63.9242 82.0852 63.7775 82.5289C63.5698 83.1586 63.2895 83.7633 63.0426 84.3798C63.0252 84.4209 63.0106 84.4648 63.0019 84.5087C62.8944 84.9964 62.6403 85.4181 62.3919 85.834C62.2234 86.1152 61.9692 86.3436 61.7543 86.5955C61.4594 86.9396 61.1632 87.2837 60.8669 87.6279C60.5793 87.9632 60.3135 88.322 59.9954 88.6237C59.7427 88.8638 59.426 89.0337 59.1385 89.2343C59.047 89.2988 58.9409 89.3471 58.864 89.4262C58.6998 89.5931 58.5328 89.7322 58.299 89.8069C58.1552 89.8538 58.0549 90.0192 57.9199 90.1071C57.6788 90.2653 57.426 90.4058 57.182 90.5508C57.0295 90.4483 57.1022 90.3546 57.1733 90.2623C57.6526 89.64 58.007 88.9458 58.3193 88.2297C58.4006 88.0423 58.4166 87.827 58.4732 87.6279C58.5444 87.3804 58.4703 87.1153 58.6258 86.8649C58.7056 86.7361 58.7884 86.5032 58.6345 86.3114C58.6054 86.2748 58.6359 86.184 58.6475 86.1181C58.6577 86.0536 58.6969 85.9878 58.6882 85.9262C58.6635 85.7549 58.5357 85.506 58.604 85.4313C58.7623 85.257 58.5226 85.0784 58.6708 84.9407C58.6737 84.9378 58.6562 84.9026 58.6417 84.8895C58.4021 84.6874 58.5154 84.4165 58.6011 84.2334C58.7216 83.9771 58.6185 83.8351 58.4791 83.6564C58.5052 83.6228 58.5677 83.5774 58.5604 83.5466C58.5008 83.2918 58.482 83.0414 58.5226 82.7763C58.5473 82.6182 58.4486 82.4439 58.4602 82.2814C58.4747 82.091 58.4369 81.9372 58.299 81.7893C58.5894 81.2255 58.4762 80.672 58.3178 80.095C58.2394 79.808 58.3236 79.4741 58.3396 79.1622C58.3425 79.1095 58.3992 79.0348 58.3803 79.0085C58.1508 78.6936 58.5081 78.3231 58.2699 77.9951C58.174 77.8618 58.1958 77.6407 58.1566 77.4181C58.2888 77.3347 58.2525 77.1648 58.2249 76.9817C58.0259 75.6447 58.1276 74.296 58.0913 72.9532C58.0695 72.1639 58.0317 71.3746 58.023 70.5853C58.0099 69.3757 58.0244 68.1646 58.0114 66.955C58.0056 66.4366 57.9489 65.9182 57.9358 65.3998C57.9141 64.5651 57.9068 63.729 57.8995 62.8943C57.885 61.3786 57.8705 59.863 57.8603 58.3473C57.856 57.6605 57.8603 56.9752 57.8603 56.2664C57.7935 56.2796 57.7035 56.2679 57.6759 56.306C57.3926 56.6735 56.9627 56.8361 56.604 57.0953C56.1755 57.4043 55.7325 57.6913 55.2968 57.9871C54.7768 58.3415 54.2539 58.6929 53.7369 59.0517C53.5379 59.1894 53.3563 59.3519 53.1574 59.4881C52.8189 59.7195 52.5154 60.0021 52.1232 60.1558C52.0085 60.2012 51.9315 60.333 51.824 60.4063C51.2387 60.8046 50.6563 61.2073 50.0579 61.5851C49.5945 61.878 49.1109 62.1357 48.6345 62.4066C48.5198 62.4725 48.3992 62.5282 48.2801 62.5867C48.145 62.6526 48.007 62.7112 47.8734 62.78C47.7035 62.8694 47.5452 62.9821 47.368 63.0539C47.0107 63.2018 46.649 63.3365 46.2845 63.4624C45.9707 63.5708 45.6512 63.6675 45.3317 63.7568C45.1879 63.7978 45.0354 63.808 44.8872 63.8315C44.6272 63.8725 44.3556 63.8769 44.1102 63.9589C43.6265 64.12 43.14 64.1829 42.6345 64.1434C42.5604 64.1375 42.482 64.1668 42.4079 64.1844C41.978 64.2854 41.551 64.2971 41.124 64.158C41.0325 64.1273 40.9235 64.1302 40.8248 64.1434C40.2685 64.221 39.7514 64.0233 39.2227 63.9164C39.1559 63.9032 39.1007 63.8329 39.0485 63.7187C39.1734 63.7187 39.2997 63.7158 39.4246 63.7187C40.0477 63.7348 40.6563 63.7129 41.2663 63.5196C41.7224 63.3746 42.1799 63.2238 42.5866 62.9953C42.8771 62.8313 43.1675 62.6351 43.4493 62.4388C43.7674 62.2177 44.0666 61.9629 44.4065 61.7813C44.6665 61.6422 44.7173 61.4416 44.7144 61.2C44.7086 60.7914 44.6766 60.3828 44.6679 59.9743C44.6636 59.7385 44.6839 59.5013 44.6911 59.264C44.7057 58.794 44.7246 58.3224 44.7289 57.8524C44.7434 56.2811 44.7507 54.7083 44.7681 53.137C44.771 52.8558 44.8277 52.5747 44.8291 52.2935C44.8291 51.9567 44.7812 51.6214 44.7812 51.2846C44.7754 49.4892 44.7841 47.6924 44.7754 45.897C44.7638 43.3182 44.7463 40.7394 44.7231 38.1621C44.7158 37.4284 44.6694 36.6948 44.6577 35.9597C44.6229 33.8905 44.604 31.8213 44.5633 29.7536C44.5503 29.1004 44.4776 28.4488 44.4559 27.7957C44.4123 26.4177 44.4457 25.0324 44.3309 23.6602C44.2452 22.6351 44.3179 21.6086 44.2089 20.5879C44.1959 20.462 44.2482 20.3287 44.2728 20.1852C45.5873 20.9394 46.7725 21.859 48.2031 22.3262C47.9315 22.1285 47.6831 21.8385 47.381 21.758C47.0252 21.6642 46.8887 21.3699 46.4805 21.2293C46.389 21.1986 46.1988 21.0521 46.0564 20.9511C45.7761 20.7519 45.4769 20.5777 45.2024 20.3727C44.925 20.1662 44.6635 19.9377 44.315 19.8587C44.3048 19.8484 44.2932 19.8425 44.2816 19.8264C43.901 19.4267 43.4072 19.2334 42.9845 18.9346C42.5648 18.6388 42.1189 18.3825 41.6832 18.1116C41.2489 17.8422 40.8103 17.5801 40.3803 17.3047C40.1436 17.1539 40.0216 17.1539 39.8153 17.3355C39.2547 17.829 38.6839 18.3108 38.1305 18.8131C37.6135 19.2831 37.1167 19.7752 36.6011 20.2482C36.4777 20.3609 36.4472 20.4737 36.4588 20.6348C36.5445 21.7609 36.6229 22.887 36.7013 24.0131C36.7333 24.4627 36.7231 24.9181 36.7928 25.3604C36.9628 26.4309 36.9323 27.5101 36.9831 28.5864C37.018 29.3172 37.0993 30.045 37.1487 30.7757C37.169 31.0803 37.153 31.3864 37.169 31.691C37.2286 32.8859 37.2968 34.0794 37.3535 35.2743C37.3724 35.658 37.3593 36.0431 37.3694 36.4268C37.4174 38.1665 37.4885 39.9062 37.5161 41.6474C37.551 43.8967 37.5539 46.146 37.5655 48.3968C37.5699 49.2446 37.5699 50.094 37.5481 50.9404C37.5379 51.3168 37.4697 51.6917 37.429 52.068C37.4246 52.1119 37.4043 52.1705 37.4246 52.1983C37.5931 52.4487 37.4653 52.7153 37.4726 52.9745C37.474 53.0272 37.4595 53.0989 37.4246 53.1326C37.3186 53.2322 37.3026 53.3113 37.3782 53.4504C37.4 53.4899 37.3433 53.6305 37.3607 53.7564C37.3898 53.96 37.4871 54.1884 37.3375 54.411C37.2823 54.493 37.2315 54.6395 37.384 54.7683C37.4682 54.8401 37.4697 55.0422 37.4653 55.1828C37.4392 56.1434 37.4014 57.1026 37.3694 58.0632C37.3317 59.1688 37.3041 60.2759 37.2591 61.3815C37.2126 62.5545 37.2053 63.7334 37.0833 64.899C36.9671 66.0149 36.97 67.1322 36.8872 68.2466C36.7928 69.5192 36.6984 70.7917 36.5924 72.0628C36.5125 73.0191 36.4137 73.9724 36.3237 74.9272C36.3193 74.9726 36.3164 75.018 36.3164 75.0634C36.2801 76.6903 36.2119 78.3187 36.2249 79.9457C36.2307 80.7423 36.3716 81.5389 36.4864 82.3312C36.559 82.8335 36.6549 83.3401 36.8132 83.819C36.9889 84.3491 37.1879 84.8748 37.5118 85.3478C37.7282 85.6641 37.8604 86.039 38.0434 86.3802C38.2119 86.6936 38.4007 86.9967 38.5808 87.3042C38.5924 87.3233 38.6156 87.335 38.6258 87.354C38.7986 87.6498 38.9744 87.9427 39.14 88.2415C39.2794 88.4919 39.3912 88.7569 39.5423 88.9986C39.6672 89.1977 39.8342 89.3705 39.978 89.5594C40.2046 89.8582 40.4268 90.1628 40.6519 90.463C40.8596 90.7383 41.063 91.0165 41.2794 91.283C41.5031 91.5583 41.7645 91.8029 41.9678 92.0928C42.3121 92.5849 42.6592 93.0564 43.1443 93.4298C43.3651 93.5997 43.5248 93.8647 43.7529 94.0566C44.3048 94.5193 44.8437 94.9865 45.5437 95.2252C45.9054 95.3482 46.2293 95.581 46.5866 95.7245C47.0252 95.9017 47.4827 96.0306 47.9257 96.1946C48.0535 96.2414 48.1595 96.3439 48.2946 96.4333C48.068 96.6925 47.8531 96.5153 47.6556 96.4845C47.4304 96.4494 47.2097 96.3776 46.9889 96.3161C46.7013 96.237 46.4152 96.1565 46.1291 96.0701C45.933 96.0115 45.7354 95.95 45.5452 95.8739C45.3142 95.7831 45.0891 95.6733 44.8596 95.5766C44.7216 95.518 44.575 95.4785 44.4384 95.4155C44.2975 95.3496 44.1 95.4302 44.0172 95.1929C43.9765 95.0787 43.7892 95.0187 43.6715 94.9294C43.3781 94.7097 43.0964 94.4725 42.7899 94.2733C42.6665 94.1928 42.5445 94.0361 42.3469 94.1152C42.315 94.1283 42.2496 94.0727 42.2089 94.039C41.8124 93.711 41.3898 93.4078 41.0354 93.0403C40.832 92.8294 40.5052 92.721 40.4283 92.3857C40.4181 92.3418 40.3513 92.2978 40.3019 92.2803C40.0201 92.1851 39.856 91.9478 39.6512 91.7575C39.4929 91.6096 39.3215 91.4778 39.1676 91.3255C38.9802 91.138 38.7899 90.9506 38.6302 90.7397C38.5372 90.6167 38.4573 90.5098 38.3193 90.4176C38.1363 90.296 37.9838 90.0968 37.8807 89.8991C37.8081 89.7586 37.6904 89.7029 37.5917 89.6107C37.3448 89.3837 37.0688 89.1816 36.8495 88.9312C36.5968 88.6427 36.3295 88.3645 36.116 88.0364C35.9548 87.789 35.718 87.5898 35.5016 87.3819C35.397 87.2808 35.3404 87.1183 35.2634 87.0524C35.0775 86.8927 35.0601 86.6336 34.8233 86.4988C34.5851 86.3641 34.4036 86.1122 34.2293 85.8867C34.0158 85.6114 33.7514 85.3917 33.5191 85.1384C33.23 84.8236 32.9686 84.4824 32.6694 84.1778C32.2889 83.7912 31.8894 83.4207 31.4828 83.0619C31.3549 82.9491 31.1836 82.8745 31.018 82.8232C30.6302 82.7002 30.3135 82.4307 29.9403 82.2916C29.6265 82.1745 29.323 82.0441 29.0383 81.8728C28.9497 81.8201 28.8887 81.7191 28.7987 81.6224C29.108 81.3764 29.0252 81.0337 29.0935 80.735C29.1371 80.5417 29.1618 80.341 29.2344 80.1595C29.3956 79.7597 29.4319 79.3438 29.445 78.9206C29.445 78.8986 29.4348 78.8708 29.445 78.8532C29.6875 78.4168 29.6178 77.9116 29.7471 77.4503C29.7834 77.3229 29.8008 77.1882 29.8139 77.055C29.8517 76.7006 29.8691 76.3433 29.9199 75.9918C30.0448 75.1381 29.994 74.2726 30.1102 73.4189C30.2453 72.4143 30.376 71.4097 30.4849 70.4022C30.5779 69.5382 30.6098 68.6684 30.7173 67.8058C30.8582 66.6753 30.9381 65.5434 31.0049 64.407C31.0586 63.483 31.1342 62.5618 31.1981 61.6393C31.262 60.7167 31.3302 59.7941 31.3869 58.8701C31.4348 58.072 31.4697 57.2725 31.506 56.4729C31.5292 55.9574 31.5365 55.442 31.5655 54.9265C31.6048 54.206 31.6483 53.4855 31.7093 52.768C31.7239 52.5952 31.8154 52.4282 31.872 52.2598C31.9141 52.1368 31.9591 52.0153 32.0027 51.8937C31.9766 51.8806 31.949 51.8674 31.9228 51.8557C31.8662 51.964 31.811 52.0724 31.7544 52.1808C31.7369 52.1837 31.718 52.1866 31.7006 52.1895C31.6817 52.0255 31.6469 51.8615 31.6483 51.699C31.6585 50.116 31.6803 48.5344 31.6875 46.9514C31.6919 46.1035 31.6672 45.2556 31.6658 44.4078C31.6658 43.6873 31.6716 42.9668 31.6875 42.2448C31.6934 41.9842 31.7297 41.725 31.766 41.4658C31.779 41.3735 31.8357 41.2857 31.8909 41.1495C31.8154 41.066 31.7151 40.9576 31.5844 40.8141C31.6832 40.7643 31.7732 40.7189 31.8793 40.6648C31.8415 40.6238 31.8052 40.5593 31.7529 40.5374C31.6411 40.4876 31.6454 40.4261 31.6382 40.3074C31.567 39.1154 31.4639 37.9263 31.3912 36.7343C31.3462 35.9904 31.3491 35.2436 31.307 34.4982C31.2634 33.6986 31.1937 32.8991 31.1342 32.0995C31.1284 32.0204 31.1153 31.9428 31.1095 31.8638C31.0586 31.133 31.0078 30.4008 30.957 29.6701C30.9395 29.4109 30.9236 29.1517 30.9003 28.8925C30.8684 28.5264 30.8292 28.1603 30.7972 27.7927C30.7231 26.961 30.6549 26.1277 30.5779 25.2959C30.5343 24.8259 30.4849 24.3558 30.4283 23.8872C30.3339 23.1052 30.2249 22.3262 30.1334 21.5427C30.0695 20.995 30.0245 20.4444 29.9751 19.8953C29.9693 19.8323 29.994 19.7664 30.01 19.6683C30.9395 20.0886 31.6963 20.7329 32.5416 21.2586C32.469 21.1664 32.405 21.0638 32.3208 20.9833C32.2249 20.891 32.1102 20.8208 32.0042 20.7388C31.5045 20.3507 31.0223 19.9407 30.5038 19.5804C29.6759 19.0049 28.7958 18.5187 27.8531 18.1585C27.6687 18.0882 27.4595 18.0369 27.2663 18.0516C26.8016 18.0853 26.3266 18.1175 25.8793 18.239C25.5249 18.3357 25.2257 18.5934 24.9947 18.8965C24.8727 19.0562 24.7653 19.229 24.6723 19.4062C24.6084 19.5277 24.5808 19.6683 24.5401 19.8001C24.5271 19.8425 24.5314 19.8923 24.5111 19.9289C24.3019 20.2892 24.469 20.6743 24.5067 21.0243C24.5401 21.3348 24.6302 21.6716 24.7275 21.9893C24.8117 22.2676 24.8989 22.5487 25.047 22.7845C25.2707 23.1374 25.4871 23.4874 25.6367 23.8813C25.6629 23.9487 25.7384 24.0014 25.7994 24.0497C25.9911 24.1991 25.9926 24.1976 26.055 24.5564C25.9054 24.4451 25.7733 24.3704 25.6716 24.2665C25.4319 24.0219 25.1952 23.773 24.9817 23.505C24.7769 23.2487 24.6055 22.9734 24.5445 22.6307C24.5067 22.4155 24.3673 22.2193 24.2947 22.0084C24.1349 21.5398 23.9853 21.0741 23.9664 20.563C23.9359 19.7239 24.3513 19.0547 24.697 18.3547C24.8786 17.9857 25.0717 17.6225 25.2765 17.2652C25.3767 17.0895 25.5307 16.9445 25.6324 16.7688C25.7253 16.6106 25.7645 16.4203 25.856 16.2621C25.9998 16.0161 26.0971 15.7408 26.3179 15.5402C26.376 15.4874 26.376 15.3732 26.4167 15.2941C26.6912 14.7465 26.9657 14.1988 27.2446 13.654C27.4276 13.2967 27.5714 12.9306 27.6324 12.5294C27.6672 12.3009 27.7587 12.0798 27.7921 11.8513C27.872 11.311 27.9272 10.7677 28.0013 10.2259C28.0289 10.0267 28.1044 9.83341 28.1218 9.63571C28.1523 9.26229 28.0884 8.86544 28.1945 8.51838C28.2685 8.27236 28.1596 8.02634 28.2947 7.78911C28.3716 7.65292 28.2801 7.43034 28.3339 7.27072C28.5401 6.66006 28.5227 6.00255 28.7377 5.39483C28.8001 5.2191 28.8146 5.02873 28.864 4.84861C28.8742 4.80907 28.9381 4.78418 28.9773 4.75196C29.0122 4.80028 29.0804 4.85154 29.0775 4.89693C29.0557 5.1327 29.0165 5.367 28.9846 5.60131C28.9512 5.84586 28.9061 6.09042 28.8931 6.33643C28.8611 6.95441 28.8103 7.57531 28.835 8.19329C28.8553 8.71461 28.957 9.23301 29.047 9.74847C29.0964 10.0326 29.1792 10.3123 29.2765 10.5846C29.5307 11.3007 29.9621 11.8997 30.5125 12.4151C30.8393 12.7212 31.1458 13.0478 31.4871 13.3362C32.0056 13.7741 32.5416 14.1929 33.0804 14.6059C33.23 14.7201 33.4188 14.7801 33.5743 14.8577C33.3883 14.5649 33.3898 14.5312 33.6599 14.2617C34.4864 13.4373 35.3157 12.6158 36.1465 11.7957C36.6723 11.2758 37.201 10.7589 37.7355 10.2493C37.8749 10.116 37.8894 9.98424 37.8066 9.83048C37.7151 9.66207 37.6207 9.4966 37.5161 9.33698C37.2286 8.89619 36.9221 8.46859 36.6461 8.02049C36.1973 7.28975 35.8647 6.50484 35.5859 5.69356C35.4522 5.30404 35.2634 4.93354 35.1458 4.53962C35.0078 4.0842 34.7885 3.64927 34.7798 3.15577C34.7769 3.01372 34.7057 2.87461 34.697 2.73256C34.6694 2.27713 34.6549 1.82024 34.6403 1.36335C34.6345 1.20959 34.6432 1.05436 34.6403 0.900602C34.6345 0.613581 34.6156 0.325096 34.787 0C34.8698 0.568185 34.9381 1.06754 35.0151 1.56544C35.0514 1.79535 35.0833 2.03111 35.1574 2.25077C35.3636 2.86436 35.5554 3.48526 35.8197 4.07394C36.1915 4.90279 36.6723 5.6716 37.2838 6.35108C37.4087 6.48873 37.5307 6.63663 37.6164 6.80065C37.8836 7.3044 38.3629 7.60167 38.7449 7.98827C39.1109 8.35876 39.5612 8.64432 39.9693 8.97234C40.1174 9.09096 40.2424 9.23886 40.392 9.35455C40.9816 9.81144 41.5771 10.2581 42.1683 10.7135C42.9279 11.3007 43.6774 11.9011 44.4428 12.4796C44.9119 12.834 45.3869 13.1854 45.8879 13.49C46.3324 13.7609 46.819 13.9615 47.2852 14.1973C47.9969 14.559 48.7521 14.7728 49.5277 14.95C50.0245 15.0642 50.5212 15.0891 51.0194 15.1316C51.198 15.1477 51.3752 15.1741 51.5539 15.1858C51.8153 15.2033 52.0666 15.2546 52.3396 15.155C52.5502 15.0774 52.8117 15.1389 53.0499 15.1389C53.0571 15.1726 53.0644 15.2063 53.0717 15.24C52.9787 15.281 52.8887 15.3263 52.7943 15.36C52.5357 15.4523 52.3324 15.6104 52.161 15.8301C51.6367 16.5008 51.3723 17.2828 51.2126 18.1014C51.0368 18.9976 50.8741 19.8967 50.7579 20.8017C50.5851 22.1343 50.5691 23.4786 50.5546 24.8229C50.5459 25.5976 50.4892 26.3723 50.4951 27.1455C50.5125 29.405 50.5633 31.6631 50.5778 33.9227C50.6054 37.9922 50.6229 42.0618 50.6345 46.1313C50.6432 49.3193 50.6345 52.5088 50.6388 55.6968C50.6388 55.9076 50.6853 56.1171 50.7129 56.3514C51.0717 56.306 51.275 56.0219 51.535 55.8447C51.7863 55.6733 52.0128 55.4669 52.251 55.275C52.8218 54.8137 53.3999 54.3583 53.9635 53.8868C54.4486 53.4811 54.9424 53.0799 55.3897 52.6347C55.9664 52.0607 56.5924 51.5452 57.1864 50.9931C57.3287 50.8599 57.4609 50.7076 57.625 50.608C57.8284 50.485 57.8211 50.3151 57.8211 50.1189C57.8255 47.5064 57.8342 44.8939 57.8414 42.2815C57.8443 41.2212 57.8414 40.161 57.8443 39.0993C57.8473 37.9161 57.8574 36.7314 57.8603 35.5482C57.8603 35.2377 57.7906 34.917 57.8472 34.6212C57.9896 33.8861 57.7906 33.1305 58.0128 32.4041C58.0448 32.3001 57.9809 32.1698 57.9751 32.0512C57.9547 31.647 57.9228 31.2428 57.9286 30.8401C57.9373 30.0757 57.9809 29.3128 57.9896 28.5484C58.0056 27.0664 58.0012 25.5859 58.0186 24.1039C58.0433 22.0465 58.0869 19.989 58.1058 17.9315C58.1116 17.2242 58.0622 16.5169 58.0477 15.8096C58.0419 15.4948 58.068 15.1784 58.0666 14.8621C58.0637 14.4814 58.0274 14.0992 58.0404 13.7199C58.0579 13.2498 58.0361 12.79 57.917 12.3331C57.808 11.9143 57.7441 11.4809 57.6149 11.0694C57.5205 10.7662 57.352 10.4865 57.2154 10.1966C57.2009 10.1673 57.1661 10.1453 57.1588 10.1146C57.0397 9.67965 56.8001 9.30183 56.5865 8.9123C56.3905 8.55499 56.1697 8.21086 55.9881 7.84476C55.6381 7.13599 55.1051 6.5722 54.6011 5.98205C54.3876 5.73164 54.2118 5.44755 54.0099 5.18542C53.7659 4.86911 53.5248 4.54841 53.2605 4.24967C52.9758 3.92751 52.6693 3.62584 52.3687 3.31832C51.9983 2.9405 51.6309 2.56123 51.2489 2.19659C51.121 2.07505 50.9555 1.9945 50.8059 1.89639C50.4253 1.64744 50.0506 1.38678 49.6585 1.15394C49.4217 1.01336 49.1603 0.918175 48.9119 0.798095C48.8582 0.771736 48.8131 0.727804 48.7739 0.654584C49.1109 0.574042 49.4406 0.560863 49.75 0.735126C50.3629 1.07926 50.9787 1.419 51.5771 1.78803C51.9446 2.01354 52.267 2.31374 52.6359 2.53487C53.1007 2.81603 53.5844 3.06791 54.0753 3.30221C54.559 3.53212 55.076 3.69467 55.5495 3.94215C55.8589 4.10323 56.1726 4.24821 56.4834 4.4005C56.7347 4.52351 56.9743 4.69778 57.1748 4.89547C57.6192 5.33332 58.0157 5.82243 58.4703 6.25003C58.9525 6.704 59.3389 7.24289 59.8066 7.70711C60.1668 8.06442 60.5647 8.38512 60.9017 8.7644C61.2198 9.12025 61.564 9.44827 61.9402 9.72651C62.2292 9.94031 62.3817 10.2844 62.7013 10.4572C62.739 10.4777 62.7376 10.5597 62.7681 10.6037C63.0063 10.9478 63.2474 11.2919 63.4943 11.6288C63.5117 11.6522 63.5902 11.6317 63.5858 11.6317C63.6831 11.7957 63.7645 11.9377 63.8487 12.0754C64.0099 12.339 64.2278 12.5821 64.3222 12.8676C64.4093 13.1283 64.389 13.4344 64.3774 13.7184C64.3483 14.5063 64.2888 15.2927 64.2612 16.0805C64.2423 16.6253 64.2597 17.1715 64.2612 17.7162C64.2612 17.7719 64.2902 17.8436 64.2655 17.8817C64.1145 18.1131 64.2103 18.3606 64.2002 18.6022C64.174 19.2773 64.1276 19.9524 64.1 20.6275C64.0854 20.9657 64.1029 21.3055 64.0912 21.6452C64.0636 22.436 64.0273 23.2253 63.9939 24.0161C63.9387 25.3355 63.8821 26.6564 63.8298 27.9758C63.8037 28.6187 63.7848 29.263 63.7674 29.9059C63.7165 31.8037 63.6875 33.7016 63.6148 35.598C63.4928 38.7947 63.4725 41.993 63.4914 45.1912C63.4928 45.5427 63.352 45.7901 63.1225 46.0186C62.816 46.3232 62.5154 46.6322 62.2118 46.9412C62.1929 46.9602 62.1857 46.9895 62.2118 47.0539C62.4674 46.8269 62.7202 46.5941 62.9816 46.3744C63.3127 46.0962 63.6497 45.8253 63.9896 45.5573C64.6635 45.0257 65.3389 44.4956 66.0157 43.9684C66.6417 43.4808 67.2677 42.9946 67.8981 42.5143C68.5284 42.034 69.166 41.5624 69.7993 41.0865C69.9416 40.9796 70.0665 40.8376 70.222 40.7629C70.4369 40.6604 70.4616 40.4964 70.4631 40.2928C70.4718 39.524 70.4761 38.7552 70.5037 37.9864C70.5589 36.4502 70.6185 34.9156 70.6969 33.3809C70.7724 31.8916 70.8726 30.4038 70.9641 28.9145C71.0295 27.8337 71.0455 26.7442 71.1849 25.6738C71.2604 25.0895 71.2662 24.5052 71.3214 23.9238C71.4158 22.9236 71.4812 21.922 71.5596 20.9203C71.6032 20.3565 71.6729 19.7942 71.6904 19.2304C71.7252 18.056 71.7717 16.8786 71.7354 15.7042C71.7092 14.8387 71.5872 13.9718 71.4507 13.1151C71.3621 12.5586 71.2343 12.0007 70.9903 11.4838C70.9714 11.4442 70.9569 11.3783 70.9278 11.3696C70.556 11.2641 70.4877 10.8702 70.251 10.6359C70.0113 10.3972 69.8472 10.0824 69.6468 9.80266C69.1893 9.16564 68.7492 8.51545 68.267 7.89748C67.8995 7.42448 67.4725 7.00127 67.0266 6.59563C66.784 6.37597 66.6039 6.08016 66.418 5.80339C66.1929 5.46805 65.914 5.19567 65.5887 4.96283C65.4493 4.86325 65.3534 4.70217 65.2227 4.58648C64.7782 4.19549 64.4297 3.68881 63.8501 3.45743C63.6497 3.37689 63.4769 3.22606 63.3026 3.04301C63.4042 3.05033 63.5277 3.02251 63.6047 3.07083C64.2452 3.47647 64.9235 3.81328 65.5495 4.2526C66.0172 4.57916 66.4035 4.9848 66.848 5.326C67.0586 5.48709 67.3214 5.5852 67.5146 5.76093C67.8327 6.05234 68.2176 6.28664 68.3991 6.70985C68.6199 6.66006 68.6751 6.92219 68.8189 6.95294C69.0193 6.99688 69.0963 7.15942 69.2241 7.26339C69.6599 7.61778 69.9692 8.11421 70.4834 8.38805C70.6272 8.4642 70.7187 8.63553 70.8509 8.7439C70.9569 8.83176 71.0905 8.88594 71.2067 8.96356C71.2459 8.98992 71.2619 9.04849 71.2982 9.08364C71.349 9.13489 71.4013 9.20957 71.4638 9.22275C71.7063 9.27401 71.8661 9.42191 72.0259 9.60203C72.113 9.70161 72.3004 9.68843 72.3817 9.83194C72.5066 10.0501 72.7724 10.0941 72.9278 10.2595C73.1864 10.5334 73.5378 10.6915 73.7891 10.9434C74.2263 11.3827 74.7622 11.6727 75.2299 12.0593C75.4536 12.2438 75.7513 12.3375 76.0113 12.4781C76.2394 12.6011 76.4543 12.749 76.6867 12.8603C77.0556 13.036 77.4318 13.1957 77.8094 13.3523C77.8777 13.3802 77.9648 13.3553 78.0418 13.367C78.4819 13.427 78.54 13.6511 78.4354 13.9864C78.19 14.7772 78.0229 15.5855 77.8937 16.4012C77.7673 17.1905 77.6468 17.9813 77.532 18.7735C77.4899 19.0635 77.471 19.3578 77.4434 19.6507C77.3853 20.2628 77.333 20.8764 77.2691 21.4871C77.2169 21.9879 77.1036 22.4872 77.1094 22.9866C77.1152 23.423 77.0222 23.8316 76.9641 24.2518C76.9162 24.6033 76.9641 24.9679 76.9351 25.3238C76.8755 26.0399 76.7782 26.7545 76.7187 27.4706C76.6214 28.6362 76.5473 29.8034 76.4514 30.969C76.4166 31.3937 76.3323 31.8154 76.2975 32.2401C76.2684 32.5974 76.28 32.9562 76.267 33.315C76.2423 34.0472 76.1943 34.7794 76.1958 35.5116C76.1958 36.1984 76.206 36.8896 76.2858 37.569C76.3541 38.1504 76.5298 38.7201 76.6562 39.2941C76.7404 39.6792 76.7579 40.098 76.9249 40.4422C77.0919 40.7878 77.0803 41.1671 77.2415 41.5053C77.3548 41.7411 77.3664 42.0252 77.4768 42.2624C77.6017 42.5333 77.7586 42.8013 77.9547 43.0224C78.0927 43.1777 78.312 43.2699 78.5095 43.3563C78.7826 43.4735 79.0701 43.5525 79.3476 43.6609C79.4071 43.6843 79.4463 43.7605 79.4768 43.7927C79.0455 43.7649 78.6025 43.7356 78.1595 43.7092C77.93 43.6961 77.6991 43.6726 77.4696 43.6829C76.9772 43.7063 76.479 43.7092 75.9954 43.7927C75.5262 43.8733 75.0585 44.0094 74.6141 44.1837C74.068 44.399 73.5466 44.6787 73.0135 44.9305C72.3367 45.2512 71.7441 45.7023 71.1486 46.146C70.9249 46.3129 70.7303 46.3818 70.4863 46.2192C70.434 46.1841 70.3686 46.1694 70.3091 46.146C70.2946 46.168 70.28 46.1899 70.2655 46.2119C70.54 46.4228 70.8073 46.6424 71.0891 46.8401C71.6729 47.2501 72.2553 47.6646 72.8581 48.0453C73.7964 48.6384 74.7971 49.0894 75.8879 49.334C76.8232 49.5434 77.7702 49.5258 78.7172 49.5463C78.8363 49.5492 78.954 49.5463 79.0731 49.5463C79.0818 49.5741 79.089 49.6034 79.0977 49.6312C78.9191 49.7162 78.7477 49.8202 78.5618 49.8831C78.0491 50.0559 77.7572 50.4381 77.5451 50.9097C77.4507 51.1205 77.3447 51.327 77.2444 51.5364C76.8872 52.2877 76.7957 53.1048 76.6678 53.9117C76.3483 55.9223 76.4935 57.949 76.4834 59.9684C76.4819 60.3477 76.5836 60.7255 76.6272 61.1048C76.6504 61.3054 76.646 61.5104 76.662 61.7125C76.7288 62.534 76.7985 63.3555 76.8654 64.1771C76.8901 64.4817 76.906 64.7848 76.9278 65.0894C76.9757 65.7425 77.015 66.3956 77.076 67.0458C77.1413 67.7531 77.2285 68.4575 77.304 69.1648C77.4158 70.2075 77.5248 71.2516 77.6395 72.2942C77.6991 72.8419 77.7586 73.391 77.8341 73.9373C77.8646 74.154 77.93 74.3678 77.991 74.5787" fill="white"/>
<path d="M55.9576 93.1311C55.6672 92.9524 55.3781 92.7562 55.1239 92.5014C54.9104 92.2891 54.6708 92.0826 54.4587 91.8673C54.1624 91.5671 53.9547 91.1805 53.6904 90.8466C53.3651 90.4381 53.0165 90.0471 52.6839 89.6444C52.4965 89.4174 52.3091 89.1875 52.1407 88.9458C51.9257 88.6354 51.7238 88.3147 51.5263 87.9911C51.3171 87.6498 51.0847 87.316 50.9264 86.9513C50.7899 86.638 50.7129 86.3143 50.7681 85.9277C50.8335 85.4752 50.6853 84.9949 50.6635 84.5248C50.6345 83.8849 50.6345 83.242 50.6287 82.6021C50.6229 82.0002 50.6258 81.3983 50.6214 80.7965C50.62 80.5534 50.6214 80.3088 50.5982 80.0672C50.5502 79.5649 50.4442 79.0656 50.4384 78.5633C50.4166 76.9349 50.4123 75.3065 50.4311 73.6781C50.45 72.0965 50.527 70.5164 50.5415 68.9364C50.5546 67.4456 50.5197 65.9534 50.5081 64.4626C50.5081 64.3411 50.5372 64.2181 50.5502 64.0965C50.5706 63.8974 50.6185 63.6953 50.6011 63.4991C50.5735 63.1886 50.5241 62.8811 50.4791 62.5736C49.885 63.0407 49.1762 63.3922 48.4965 63.6689C48.4602 63.6836 48.4282 63.6865 48.3977 63.6806C48.36 63.7129 48.3121 63.7319 48.2641 63.7363C48.2627 63.7363 48.2598 63.7363 48.2583 63.7363C48.2467 63.7407 48.2336 63.7451 48.222 63.7495C48.2176 63.7539 48.2162 63.7583 48.2118 63.7627C48.193 63.7832 48.1712 63.7963 48.1465 63.8051C48.1276 63.8154 48.1073 63.8198 48.0869 63.8212C48.0579 63.8388 48.0303 63.8549 48.0027 63.8666C47.8662 63.9252 47.7238 63.9691 47.58 64.0101C47.1821 64.2034 46.7667 64.4172 46.3309 64.4465C46.2336 64.4817 46.1349 64.5168 46.0361 64.5461C45.5437 64.6955 45.0281 64.7335 44.5256 64.839C44.511 65.0996 44.4239 65.3603 44.5503 65.618C44.5706 65.6605 44.5401 65.7279 44.5357 65.7835C44.5038 66.2184 44.4529 66.6534 44.4428 67.0883C44.4297 67.7531 44.4559 68.418 44.4457 69.0828C44.4239 70.5589 44.3919 72.0365 44.3571 73.5126C44.344 74.0383 44.2946 74.564 44.2917 75.0883C44.2888 75.532 44.3469 75.9757 44.3469 76.4194C44.3469 76.8441 44.2482 77.2761 44.299 77.692C44.344 78.0698 44.3092 78.4432 44.3266 78.8152C44.3789 79.9296 44.3411 81.0484 44.3556 82.1642C44.3629 82.6797 44.3789 83.1996 44.4457 83.7106C44.482 83.9815 44.5328 84.2803 44.7565 84.4897C44.8538 84.5805 44.9773 84.6493 44.941 84.8206C44.9352 84.8514 44.9758 84.91 45.0107 84.9305C45.2547 85.0769 45.185 85.4621 45.4856 85.5631C45.6004 85.9072 45.8502 86.1445 46.1015 86.389C46.2714 86.5545 46.3992 86.7639 46.5561 86.944C46.6955 87.1051 46.848 87.253 46.9947 87.4068C47.4333 87.8724 47.795 88.3996 48.3382 88.7833C48.7899 89.1011 49.2547 89.4218 49.6425 89.8464C49.9998 90.236 50.482 90.5098 50.909 90.8349C51.0731 90.9609 51.2169 91.1336 51.4014 91.2083C51.8066 91.3738 52.1377 91.6432 52.4921 91.8834C52.7391 92.0503 52.9961 92.2026 53.259 92.3432C53.3621 92.3974 53.5088 92.3725 53.6047 92.434C53.8734 92.6024 54.1174 92.8074 54.3861 92.9759C54.6403 93.1355 54.8974 93.2819 55.2067 93.3464C55.5481 93.4166 55.8836 93.5411 56.206 93.6817C56.6069 93.8559 56.9903 94.0697 57.4551 93.8647C56.8465 93.8311 56.4268 93.4181 55.9576 93.1296V93.1311Z" fill="white"/>
<path d="M13.1784 109.387C12.8394 109.526 12.084 109.881 12.053 110.53V120.649L11.9142 120.772L2.91302 111.874V118.734C2.91302 119.676 3.79172 120.093 4.13066 120.232L4.11516 120.371H0.446755L0.431257 120.232C0.7702 120.093 1.64889 119.661 1.64889 118.734V110.5C1.27895 110.129 0.924513 109.805 0 109.403L0.0309931 109.249H2.55858L10.7889 117.606V110.577C10.7889 109.898 9.97221 109.511 9.61777 109.372L9.64877 109.249H13.1939L13.1784 109.388V109.387Z" fill="white"/>
<path d="M25.0616 117.744C24.846 119.057 24.2139 120.37 24.2139 120.37H15.8293L15.8138 120.262C16.1372 120.123 17.0314 119.659 17.0314 118.733V110.576C17.0314 109.897 16.1992 109.511 15.8603 109.371L15.8913 109.248H23.5825C23.5825 109.248 24.0603 110.19 24.569 111.41L24.5225 111.441C24.3069 111.241 23.7516 110.916 22.9659 110.638C22.2726 110.391 20.4538 110.345 19.4053 110.345C18.8811 110.345 18.5886 110.36 18.5886 110.36V113.249H20.0219C20.7928 113.249 21.0239 112.384 21.1007 111.982H21.1776L21.8096 115.457H21.7328C21.5482 115.086 20.9619 114.252 20.0219 114.252H18.5886V119.258H19.1432C20.2995 119.258 22.7651 119.195 23.567 118.856C24.2146 118.532 24.8156 117.991 24.9848 117.697L25.0616 117.743V117.744Z" fill="white"/>
<path d="M37.2689 111.936L37.1301 111.967C36.6834 111.411 35.2959 110.02 32.8148 110.005V118.733C32.8148 119.675 33.6935 120.092 34.0325 120.232L34.017 120.371H30.0406L30.0251 120.232C30.3641 120.092 31.2428 119.66 31.2428 118.733V110.005C28.761 110.02 27.3897 111.41 26.9423 111.967L26.8035 111.936L27.6822 109.248H36.3903L37.2689 111.936Z" fill="white"/>
<path d="M43.6192 109.371C43.2648 109.511 42.4784 109.881 42.4481 110.53V112.492H48.3975V110.577C48.3975 109.898 47.5808 109.511 47.2263 109.372L47.2573 109.249H51.1104L51.1414 109.372C50.7869 109.511 50.0005 109.882 49.9702 110.531V118.734C49.9702 119.676 50.8489 120.094 51.1879 120.233L51.1724 120.372H47.196L47.1805 120.233C47.5195 120.094 48.3981 119.661 48.3981 118.734V113.652H42.4488V118.734C42.4488 119.676 43.3275 120.094 43.6664 120.233L43.6509 120.372H39.6746L39.6591 120.233C39.998 120.094 40.8767 119.661 40.8767 118.734V110.578C40.8767 109.898 40.06 109.512 39.7056 109.373L39.7366 109.249H43.5438L43.6206 109.373L43.6192 109.371Z" fill="white"/>
<path d="M63.255 117.744C63.0394 119.057 62.4074 120.37 62.4074 120.37H54.0227L54.0072 120.262C54.3307 120.123 55.2249 119.659 55.2249 118.733V110.576C55.2249 109.897 54.3927 109.511 54.0537 109.371L54.0847 109.248H61.776C61.776 109.248 62.2537 110.19 62.7625 111.41L62.716 111.441C62.5003 111.241 61.9451 110.916 61.1594 110.638C60.466 110.391 58.6473 110.345 57.5988 110.345C57.0746 110.345 56.7821 110.36 56.7821 110.36V113.249H58.2154C58.9863 113.249 59.2174 112.384 59.2942 111.982H59.371L60.0031 115.457H59.9263C59.7416 115.086 59.1554 114.252 58.2154 114.252H56.7821V119.258H57.3367C58.493 119.258 60.9586 119.195 61.7605 118.856C62.408 118.532 63.0091 117.991 63.1782 117.697L63.255 117.743V117.744Z" fill="white"/>
<path d="M81.9508 123.444C81.4886 123.568 81.0722 123.629 80.6564 123.629C77.5277 123.629 74.7225 120.416 72.9503 118.207L72.0716 117.157C71.3472 116.339 70.6539 115.86 70.1296 115.519C69.6674 115.241 69.2199 114.856 68.8352 114.376L68.8971 114.268C69.1748 114.438 69.6983 114.7 70.1606 114.747C71.3472 114.809 72.8115 114.206 72.8115 112.476C72.8115 111.503 72.2414 110.36 70.5615 110.36H68.3419V118.732C68.3419 119.674 69.2206 120.092 69.5595 120.231L69.544 120.37H65.5677L65.5522 120.231C65.8911 120.092 66.7698 119.659 66.7698 118.732V110.576C66.7698 109.896 65.9531 109.51 65.5987 109.371L65.6297 109.247H70.9935C73.1511 109.247 74.4611 110.668 74.4611 112.306C74.4611 113.944 73.3512 114.932 72.0568 115.272L72.0723 115.288C72.6269 115.705 73.3054 116.555 74.1221 117.574C74.9233 118.594 75.8795 119.829 77.0965 121.019C78.8997 122.795 81.1503 123.244 81.9205 123.336L81.9515 123.444H81.9508Z" fill="white"/>
<path d="M88.9487 118.099C89.473 119.227 89.7196 119.644 90.6131 120.246L90.5976 120.37H86.7601L86.7756 120.231C87.3301 119.968 87.7466 119.551 87.5154 118.995C87.5154 118.995 86.0512 115.751 85.9744 115.565H82.5526C82.3828 115.967 81.4582 118.191 81.3194 118.501C81.2116 118.717 81.1651 118.902 81.1651 119.087C81.1651 119.628 81.5506 120.076 81.8585 120.261V120.369H78.3289L78.3444 120.261C79.0533 119.875 79.5156 119.335 79.9933 118.346C81.3188 115.426 82.8754 112.028 84.1853 109.124L84.4009 109L88.9474 118.099L88.9487 118.099ZM85.4501 114.392C85.0337 113.511 84.6637 112.692 84.2325 111.796C83.847 112.677 83.4313 113.511 83.0458 114.392H85.4501Z" fill="white"/>
<path d="M103.93 120.232L103.899 120.371H100.415V120.278C100.539 120.216 100.678 120.046 100.678 119.876C100.678 119.768 100.585 119.568 100.308 119.289C99.9687 118.934 95.7761 114.717 95.7761 114.717L95.3597 115.103V118.734C95.3597 119.676 96.2384 120.093 96.5618 120.232L96.5463 120.371H92.5854L92.5699 120.232C92.9089 120.093 93.7876 119.661 93.7876 118.734V110.577C93.7876 109.898 92.9709 109.511 92.6164 109.372L92.6474 109.249H96.5005L96.516 109.372C96.177 109.511 95.3906 109.882 95.3603 110.531V113.512C95.8381 113.095 98.9364 110.33 99.2134 110.037C99.5368 109.727 99.3057 109.403 99.152 109.326L99.183 109.249H102.574L102.589 109.342C102.158 109.465 101.079 109.96 100.37 110.593C99.553 111.304 96.8091 113.791 96.8091 113.791C97.2714 114.254 100.431 117.421 101.371 118.348C102.604 119.584 103.544 120.094 103.93 120.233V120.232Z" fill="white"/>
</svg>
